<svg width="328" height="48" viewBox="0 0 328 48" version="1.1" xmlns="http://www.w3.org/2000/svg" xml:space="preserve" style="fill-rule:evenodd;clip-rule:evenodd;stroke-linejoin:round;stroke-miterlimit:2;">
  <g transform="translate(-210 -660)">
    <g transform="matrix(50,0,0,50,213.093,695.726)">
        <path d="M0.075,-0L-0.02,-0L0.374,-0.667L0.482,-0.667L0.879,-0L0.786,-0L0.699,-0.15L0.16,-0.15L0.075,-0ZM0.198,-0.217L0.661,-0.217L0.428,-0.608L0.198,-0.217Z" style="fill-rule:nonzero;"/>
    </g>
    <g transform="matrix(50,0,0,50,256.043,695.726)">
        <rect x="0.093" y="-0.667" width="0.081" height="0.667" style="fill-rule:nonzero;"/>
    </g>
    <g transform="matrix(50,0,0,50,281.893,695.726)">
        <path d="M0.733,-0.379L0.733,-0.312L0.174,-0.312L0.174,-0.067L0.761,-0.067L0.761,-0L0.093,-0L0.093,-0.667L0.754,-0.667L0.754,-0.599L0.174,-0.599L0.174,-0.379L0.733,-0.379Z" style="fill-rule:nonzero;"/>
    </g>
    <g transform="matrix(50,0,0,50,323.293,695.726)">
        <path d="M0.6,-0.47L0.364,-0.249L0.626,-0L0.523,-0L0.312,-0.206L0.098,-0L-0.006,-0L0.259,-0.249L0.022,-0.47L0.127,-0.47L0.312,-0.29L0.496,-0.47L0.6,-0.47Z" style="fill-rule:nonzero;"/>
    </g>
    <g transform="matrix(50,0,0,50,354.243,695.726)">
        <path d="M0.15,-0.395C0.166,-0.428 0.188,-0.449 0.217,-0.46C0.246,-0.471 0.281,-0.476 0.324,-0.476L0.398,-0.476C0.506,-0.476 0.581,-0.462 0.624,-0.433C0.667,-0.404 0.688,-0.339 0.688,-0.236C0.688,-0.151 0.674,-0.09 0.647,-0.052C0.62,-0.014 0.566,0.005 0.485,0.005L0.399,0.007L0.298,0.006C0.259,0.006 0.228,0 0.204,-0.011C0.18,-0.022 0.162,-0.044 0.15,-0.078L0.15,0.203L0.08,0.203L0.08,-0.47L0.15,-0.47L0.15,-0.395ZM0.613,-0.232C0.613,-0.316 0.6,-0.367 0.573,-0.386C0.546,-0.405 0.487,-0.414 0.397,-0.414L0.333,-0.414C0.32,-0.414 0.308,-0.413 0.297,-0.412C0.286,-0.412 0.276,-0.411 0.266,-0.41C0.256,-0.409 0.243,-0.406 0.227,-0.401C0.199,-0.395 0.179,-0.378 0.167,-0.35C0.156,-0.32 0.151,-0.281 0.151,-0.233C0.151,-0.148 0.168,-0.097 0.202,-0.08C0.236,-0.063 0.301,-0.055 0.398,-0.055C0.485,-0.055 0.542,-0.065 0.571,-0.084C0.599,-0.103 0.613,-0.153 0.613,-0.232Z" style="fill-rule:nonzero;"/>
    </g>
    <g transform="matrix(50,0,0,50,391.993,695.726)">
        <rect x="0.08" y="-0.673" width="0.07" height="0.673" style="fill-rule:nonzero;"/>
    </g>
    <g transform="matrix(50,0,0,50,403.493,695.726)">
        <path d="M0.37,-0.476C0.45,-0.476 0.51,-0.472 0.55,-0.464C0.59,-0.456 0.622,-0.436 0.647,-0.403C0.671,-0.37 0.683,-0.317 0.683,-0.244C0.683,-0.133 0.662,-0.064 0.62,-0.036C0.577,-0.007 0.494,0.007 0.369,0.007C0.258,0.007 0.179,-0.007 0.134,-0.034C0.089,-0.061 0.066,-0.127 0.066,-0.23C0.066,-0.304 0.077,-0.36 0.098,-0.399C0.119,-0.437 0.152,-0.459 0.198,-0.465C0.213,-0.467 0.229,-0.469 0.248,-0.472C0.267,-0.474 0.283,-0.475 0.297,-0.475L0.37,-0.476ZM0.37,-0.055C0.417,-0.055 0.454,-0.057 0.483,-0.06C0.512,-0.063 0.536,-0.069 0.555,-0.078C0.591,-0.093 0.609,-0.138 0.609,-0.213C0.609,-0.272 0.603,-0.317 0.591,-0.349C0.578,-0.38 0.554,-0.399 0.519,-0.405L0.435,-0.413L0.361,-0.414L0.34,-0.414C0.263,-0.414 0.211,-0.404 0.183,-0.384C0.155,-0.363 0.141,-0.314 0.141,-0.235C0.141,-0.161 0.155,-0.112 0.184,-0.089C0.213,-0.066 0.266,-0.054 0.343,-0.054L0.37,-0.055Z" style="fill-rule:nonzero;"/>
    </g>
    <g transform="matrix(50,0,0,50,440.993,695.726)">
        <path d="M0.15,-0.387C0.159,-0.415 0.178,-0.437 0.205,-0.453C0.232,-0.469 0.276,-0.477 0.337,-0.477C0.426,-0.477 0.489,-0.466 0.525,-0.444C0.56,-0.421 0.578,-0.368 0.578,-0.285L0.577,-0.263L0.508,-0.263C0.508,-0.322 0.499,-0.363 0.481,-0.384C0.462,-0.405 0.423,-0.415 0.363,-0.415L0.339,-0.415C0.271,-0.415 0.223,-0.406 0.194,-0.387C0.165,-0.368 0.15,-0.326 0.15,-0.263L0.15,-0L0.08,-0L0.08,-0.47L0.15,-0.47L0.15,-0.387Z" style="fill-rule:nonzero;"/>
    </g>
    <g transform="matrix(50,0,0,50,470.893,695.726)">
        <path d="M0.235,-0.064L0.286,-0.058L0.369,-0.055L0.419,-0.055C0.448,-0.055 0.472,-0.056 0.491,-0.058C0.51,-0.06 0.528,-0.064 0.543,-0.071C0.558,-0.078 0.57,-0.087 0.577,-0.098C0.584,-0.109 0.589,-0.124 0.591,-0.141L0.665,-0.141C0.665,-0.08 0.64,-0.04 0.591,-0.021C0.541,-0.002 0.477,0.007 0.398,0.007C0.309,0.007 0.245,0.003 0.205,-0.005C0.165,-0.012 0.132,-0.033 0.106,-0.067C0.079,-0.1 0.066,-0.156 0.066,-0.234C0.066,-0.329 0.085,-0.394 0.122,-0.428C0.159,-0.461 0.226,-0.478 0.323,-0.478L0.371,-0.477C0.408,-0.477 0.44,-0.476 0.468,-0.474C0.496,-0.472 0.52,-0.469 0.541,-0.464C0.579,-0.456 0.609,-0.436 0.632,-0.403C0.655,-0.37 0.666,-0.318 0.666,-0.247L0.665,-0.223L0.136,-0.223C0.136,-0.176 0.142,-0.14 0.155,-0.115C0.167,-0.09 0.194,-0.073 0.235,-0.064ZM0.4,-0.415L0.345,-0.415C0.305,-0.415 0.27,-0.413 0.241,-0.409C0.212,-0.404 0.19,-0.396 0.176,-0.384C0.161,-0.372 0.151,-0.357 0.145,-0.339C0.143,-0.33 0.141,-0.322 0.14,-0.313C0.139,-0.304 0.138,-0.294 0.138,-0.283L0.593,-0.283C0.593,-0.302 0.591,-0.32 0.587,-0.337C0.583,-0.353 0.575,-0.367 0.563,-0.378C0.551,-0.389 0.532,-0.398 0.506,-0.405C0.495,-0.408 0.48,-0.41 0.461,-0.412C0.442,-0.414 0.421,-0.415 0.4,-0.415Z" style="fill-rule:nonzero;"/>
    </g>
    <g transform="matrix(50,0,0,50,507.543,695.726)">
        <path d="M0.15,-0.387C0.159,-0.415 0.178,-0.437 0.205,-0.453C0.232,-0.469 0.276,-0.477 0.337,-0.477C0.426,-0.477 0.489,-0.466 0.525,-0.444C0.56,-0.421 0.578,-0.368 0.578,-0.285L0.577,-0.263L0.508,-0.263C0.508,-0.322 0.499,-0.363 0.481,-0.384C0.462,-0.405 0.423,-0.415 0.363,-0.415L0.339,-0.415C0.271,-0.415 0.223,-0.406 0.194,-0.387C0.165,-0.368 0.15,-0.326 0.15,-0.263L0.15,-0L0.08,-0L0.08,-0.47L0.15,-0.47L0.15,-0.387Z" style="fill-rule:nonzero;"/>
    </g>
  </g>
</svg>
